inDegrees=no
num_controls=7
num_derivatives=13
num_iterations=136
num_multipliers=7
num_parameters=0
num_slacks=7
num_states=26
objective=5.405656
objective_accelerations=0.536022
objective_balance=0.082634
objective_effort=0.451443
objective_height=4.253274
objective_ligament=0.082283
solver_duration=1565.768674
status=Solve_Succeeded
success=true
DataType=double
version=3
OpenSimVersion=4.4-2022-07-23-0e9fedc
endheader
time	/jointset/ground_pelvis/pelvis_tilt/value	/jointset/ground_pelvis/pelvis_tx/value	/jointset/ground_pelvis/pelvis_ty/value	/jointset/hip_l/hip_flexion_l/value	/jointset/hip_l/hip_adduction_l/value	/jointset/hip_l/hip_rotation_l/value	/jointset/back/lumbar_extension/value	/jointset/patellofemoral_l/patellar_flexion_l/value	/jointset/knee_l/knee_flexion_l/value	/jointset/knee_l/knee_adduction_l/value	/jointset/knee_l/knee_rotation_l/value	/jointset/ankle_l/ankle_angle_l/value	/jointset/subtalar_l/subtalar_angle_l/value	/jointset/ground_pelvis/pelvis_tilt/speed	/jointset/ground_pelvis/pelvis_tx/speed	/jointset/ground_pelvis/pelvis_ty/speed	/jointset/hip_l/hip_flexion_l/speed	/jointset/hip_l/hip_adduction_l/speed	/jointset/hip_l/hip_rotation_l/speed	/jointset/back/lumbar_extension/speed	/jointset/patellofemoral_l/patellar_flexion_l/speed	/jointset/knee_l/knee_flexion_l/speed	/jointset/knee_l/knee_adduction_l/speed	/jointset/knee_l/knee_rotation_l/speed	/jointset/ankle_l/ankle_angle_l/speed	/jointset/subtalar_l/subtalar_angle_l/speed	/forceset/tau_hip_flexion_l	/forceset/tau_hip_adduction_l	/forceset/tau_hip_rotation_l	/forceset/tau_knee_flexion_l	/forceset/tau_ankle_angle_l	/forceset/tau_subtalar_angle_l	/forceset/tau_lumbar_extension	lambda_cid13_p0	lambda_cid13_p1	lambda_cid13_p2	lambda_cid13_p3	lambda_cid13_p4	lambda_cid13_p5	lambda_cid14_p0	/jointset/ground_pelvis/pelvis_tilt/accel	/jointset/ground_pelvis/pelvis_tx/accel	/jointset/ground_pelvis/pelvis_ty/accel	/jointset/hip_l/hip_flexion_l/accel	/jointset/hip_l/hip_adduction_l/accel	/jointset/hip_l/hip_rotation_l/accel	/jointset/back/lumbar_extension/accel	/jointset/patellofemoral_l/patellar_flexion_l/accel	/jointset/knee_l/knee_flexion_l/accel	/jointset/knee_l/knee_adduction_l/accel	/jointset/knee_l/knee_rotation_l/accel	/jointset/ankle_l/ankle_angle_l/accel	/jointset/subtalar_l/subtalar_angle_l/accel	gamma_cid13_p0	gamma_cid13_p1	gamma_cid13_p2	gamma_cid13_p3	gamma_cid13_p4	gamma_cid13_p5	gamma_cid14_p0
1	-0.7118366629936949	-0.153645755345592	0.6202399393091835	1.921942348715202	-0.3086544568680775	0.07341016140200107	-0.4363083980004002	1.037923166340385	1.037923166339673	-0.1744501499694314	0.1745002827051796	0.009050057277655637	-0.05756830406320685	-0.01030033221209	0.0008743370928272884	-0.002952044624122421	0.01599014767417039	0.0005530504183974456	0.003370961626243456	9.899144773119071e-05	0.008779069944914101	0.008779069944914474	3.542322711355899e-05	4.198775417813573e-06	0.003823141403383713	0.001207999091281148	-0.4646326610705375	0.01020909808864877	-0.01863183259100689	-0.2057380520115389	0.1703955545167109	0.04210637186327443	0.3659352808571327	8.581930839632024	-19.93566907245257	2.942910754345757	3.687103740772416	-723.0520035713437	-46.40041857606894	-6.905058615798934	2.212643117692843	0.3961172501661914	1.535462654945198	-6.217108646724524	-0.1943649828840695	-1.472853714328956	-0.03045798227311224	-4.072593098409576	-4.072593098409378	-0.03171722211270563	0.01168923302940272	-0.3114361518492741	-0.2100646550856622	6.166578253731945e-10	3.103225002581904e-09	-3.746202248668686e-09	3.056844999272255e-10	8.303577153406878e-10	-8.569099938509892e-10	1.055755460454945e-09
1.01	-0.7118298823344162	-0.1536172856072218	0.6202870652714392	1.921792479931167	-0.3086579201581044	0.07336986031302278	-0.436307976957768	1.03780747125247	1.037807471252213	-0.1744499049298618	0.174500365572575	0.009072830390775303	-0.05756597339597213	0.0116527581210648	0.004820041564436534	0.01237422201198959	-0.04595474438026665	-0.001244127955435646	-0.01142884388925869	-8.975271761358657e-06	-0.03191471969432025	-0.0319147196943181	1.341436529537562e-05	1.174594539197756e-05	0.0007296700248679707	-0.0007406565541118548	-0.4645200176746559	0.01023881640680063	-0.01863262481003262	-0.2056895365976539	0.1703383253120349	0.04212992737539292	0.3658698248288672	8.572706982334793	-19.94528097731527	2.945581633485993	3.672520053952076	-722.9273639415593	-46.42172507521404	-6.911598314334822	2.186085789980348	0.3938617024482459	1.53075579447542	-6.181805846217368	-0.1721578947179848	-1.483196115101313	-9.487454933879841e-05	-4.067266167067936	-4.067266167067839	0.01253067501690978	-0.004809641581062407	-0.3085741337002018	-0.1870852686543631	-1.463863470472487e-09	-4.241577158059051e-09	1.083471123309021e-08	4.915420437884195e-11	-3.030907742897888e-09	1.093571784172716e-08	-2.734885456657763e-09
1.02	-0.7116036820120362	-0.1535493458927776	0.6204873633253618	1.921023436954326	-0.3086793079578859	0.0731816307399018	-0.4363084613536263	1.03728493941409	1.037284939414263	-0.1744498853002397	0.1745005044915358	0.00906461448954065	-0.05758309313506898	0.0335836004083821	0.008768332307636663	0.02768237370942251	-0.1078446908912511	-0.003031851532672735	-0.02621473520237665	-8.209630170442484e-05	-0.07258828014905239	-0.07258828014905236	-9.658767189626882e-06	1.540909287237964e-05	-0.00237466146754798	-0.002682082175035889	-0.4644073742786695	0.0102685347249639	-0.01863341702930856	-0.2056410211837674	0.1702810961073405	0.04215348288751979	0.3658043688007224	8.558082500804694	-19.95510983050196	2.94961518156405	3.662686785000879	-722.8803945691484	-46.42522634271529	-6.941118447432467	2.208193508525346	0.3966345044843655	1.531839667209375	-6.206119538033998	-0.1924740235648783	-1.470070873852149	-0.02348884436369283	-4.068547261509126	-4.068547261509708	-0.03193007624605967	0.01091242853068085	-0.3136081746293226	-0.2086186501918796	-3.444649358147588e-09	-1.141887793692862e-08	2.5259201304066e-08	-4.429294873652603e-10	-6.716893437557155e-09	2.255384310382175e-08	-6.533400627930662e-09
1.03	-0.7111582152126737	-0.1534418924160806	0.6208406032351583	1.919635811553793	-0.3087184904715998	0.07284565738245459	-0.4363096437409483	1.036355859444861	1.036355859444832	-0.1744501050100765	0.1745006601876044	0.00902528084065281	-0.05761955961401342	0.05551257832224804	0.01272452838995894	0.04295767764357757	-0.1696665588807697	-0.004798754215659596	-0.04097358054988912	-0.0001622349870310724	-0.1132156901011735	-0.1132156901011708	-3.306957631116695e-05	1.450918970386643e-05	-0.005495672062102533	-0.004606029027883559	-0.4638642797800004	0.01033256333132775	-0.01864791316823979	-0.2056104958093061	0.1702948085736825	0.04221196705289362	0.365463883990058	8.586723056717069	-19.99046104189816	2.960890048453405	3.612298549427337	-722.5164206262129	-46.48808298978548	-6.993782775768498	2.185671555929448	0.3954367733308121	1.524184063027392	-6.168147312185555	-0.1679167363479267	-1.477847036830672	-0.001454455397568916	-4.058032233320331	-4.058032233319569	0.0126315504168939	-0.005784449847028125	-0.3118875003029408	-0.183506772895717	-5.424417537576049e-09	-1.8594469518025e-08	3.968209521778891e-08	-9.374167851929935e-10	-1.040109056320031e-08	3.417018772741141e-08	-1.033199614873581e-08
